<mxfile host="app.diagrams.net" agent="Mozilla/5.0 (Windows NT 10.0; Win64; x64) AppleWebKit/537.36 (KHTML, like Gecko) Chrome/133.0.0.0 Safari/537.36" version="26.0.14">
  <diagram name="Página-1" id="7N-_ZcXWXJLednlIwIDd">
    <mxGraphModel grid="1" page="1" gridSize="10" guides="1" tooltips="1" connect="1" arrows="1" fold="1" pageScale="1" pageWidth="827" pageHeight="1169" math="0" shadow="0">
      <root>
        <mxCell id="0" />
        <mxCell id="1" parent="0" />
        <mxCell id="_T_K9SiaN2vDp4n8ltP4-24" style="edgeStyle=orthogonalEdgeStyle;rounded=0;orthogonalLoop=1;jettySize=auto;html=1;" edge="1" parent="1" source="_T_K9SiaN2vDp4n8ltP4-1" target="_T_K9SiaN2vDp4n8ltP4-4">
          <mxGeometry relative="1" as="geometry" />
        </mxCell>
        <mxCell id="_T_K9SiaN2vDp4n8ltP4-1" value="INICIO" style="rounded=1;whiteSpace=wrap;html=1;arcSize=50;" vertex="1" parent="1">
          <mxGeometry x="340" y="10" width="120" height="60" as="geometry" />
        </mxCell>
        <mxCell id="_T_K9SiaN2vDp4n8ltP4-2" value="FINAL" style="rounded=1;whiteSpace=wrap;html=1;arcSize=50;" vertex="1" parent="1">
          <mxGeometry x="340" y="820" width="120" height="60" as="geometry" />
        </mxCell>
        <mxCell id="_T_K9SiaN2vDp4n8ltP4-6" style="edgeStyle=orthogonalEdgeStyle;rounded=0;orthogonalLoop=1;jettySize=auto;html=1;" edge="1" parent="1" source="_T_K9SiaN2vDp4n8ltP4-3" target="_T_K9SiaN2vDp4n8ltP4-5">
          <mxGeometry relative="1" as="geometry" />
        </mxCell>
        <mxCell id="_T_K9SiaN2vDp4n8ltP4-28" style="edgeStyle=orthogonalEdgeStyle;rounded=0;orthogonalLoop=1;jettySize=auto;html=1;" edge="1" parent="1" source="_T_K9SiaN2vDp4n8ltP4-3" target="_T_K9SiaN2vDp4n8ltP4-27">
          <mxGeometry relative="1" as="geometry" />
        </mxCell>
        <mxCell id="_T_K9SiaN2vDp4n8ltP4-3" value="É inteiro?" style="rhombus;whiteSpace=wrap;html=1;" vertex="1" parent="1">
          <mxGeometry x="360" y="200" width="80" height="80" as="geometry" />
        </mxCell>
        <mxCell id="_T_K9SiaN2vDp4n8ltP4-8" style="edgeStyle=orthogonalEdgeStyle;rounded=0;orthogonalLoop=1;jettySize=auto;html=1;entryX=0.5;entryY=0;entryDx=0;entryDy=0;" edge="1" parent="1" source="_T_K9SiaN2vDp4n8ltP4-4" target="_T_K9SiaN2vDp4n8ltP4-3">
          <mxGeometry relative="1" as="geometry" />
        </mxCell>
        <mxCell id="_T_K9SiaN2vDp4n8ltP4-4" value="Receba&amp;nbsp;&lt;div&gt;um número&amp;nbsp;&lt;/div&gt;&lt;div&gt;(num)&lt;/div&gt;" style="shape=parallelogram;perimeter=parallelogramPerimeter;whiteSpace=wrap;html=1;fixedSize=1;" vertex="1" parent="1">
          <mxGeometry x="340" y="110" width="120" height="60" as="geometry" />
        </mxCell>
        <mxCell id="_T_K9SiaN2vDp4n8ltP4-7" style="edgeStyle=orthogonalEdgeStyle;rounded=0;orthogonalLoop=1;jettySize=auto;html=1;entryX=1;entryY=0.5;entryDx=0;entryDy=0;" edge="1" parent="1" source="_T_K9SiaN2vDp4n8ltP4-5" target="_T_K9SiaN2vDp4n8ltP4-4">
          <mxGeometry relative="1" as="geometry">
            <Array as="points">
              <mxPoint x="560" y="140" />
            </Array>
          </mxGeometry>
        </mxCell>
        <mxCell id="_T_K9SiaN2vDp4n8ltP4-5" value="Digite um&amp;nbsp;&lt;div&gt;número inteiro&lt;/div&gt;" style="shape=display;whiteSpace=wrap;html=1;" vertex="1" parent="1">
          <mxGeometry x="500" y="220" width="110" height="40" as="geometry" />
        </mxCell>
        <mxCell id="_T_K9SiaN2vDp4n8ltP4-9" value="Sim" style="text;html=1;align=center;verticalAlign=middle;resizable=0;points=[];autosize=1;strokeColor=none;fillColor=none;" vertex="1" parent="1">
          <mxGeometry x="394" y="270" width="40" height="30" as="geometry" />
        </mxCell>
        <mxCell id="_T_K9SiaN2vDp4n8ltP4-10" value="Não" style="text;html=1;align=center;verticalAlign=middle;resizable=0;points=[];autosize=1;strokeColor=none;fillColor=none;" vertex="1" parent="1">
          <mxGeometry x="426" y="215" width="50" height="30" as="geometry" />
        </mxCell>
        <mxCell id="_T_K9SiaN2vDp4n8ltP4-19" style="edgeStyle=orthogonalEdgeStyle;rounded=0;orthogonalLoop=1;jettySize=auto;html=1;" edge="1" parent="1" source="_T_K9SiaN2vDp4n8ltP4-11" target="_T_K9SiaN2vDp4n8ltP4-15">
          <mxGeometry relative="1" as="geometry" />
        </mxCell>
        <mxCell id="_T_K9SiaN2vDp4n8ltP4-11" value="Adicione 1 na variável sub" style="whiteSpace=wrap;html=1;" vertex="1" parent="1">
          <mxGeometry x="340" y="450" width="120" height="60" as="geometry" />
        </mxCell>
        <mxCell id="_T_K9SiaN2vDp4n8ltP4-30" style="edgeStyle=orthogonalEdgeStyle;rounded=0;orthogonalLoop=1;jettySize=auto;html=1;entryX=0;entryY=0.5;entryDx=0;entryDy=0;" edge="1" parent="1" source="_T_K9SiaN2vDp4n8ltP4-13" target="_T_K9SiaN2vDp4n8ltP4-11">
          <mxGeometry relative="1" as="geometry">
            <Array as="points">
              <mxPoint x="210" y="480" />
            </Array>
          </mxGeometry>
        </mxCell>
        <mxCell id="_T_K9SiaN2vDp4n8ltP4-13" value="Subtraia a variável sub de número&lt;div&gt;(num - sub)&lt;/div&gt;" style="whiteSpace=wrap;html=1;" vertex="1" parent="1">
          <mxGeometry x="150" y="675" width="120" height="65" as="geometry" />
        </mxCell>
        <mxCell id="_T_K9SiaN2vDp4n8ltP4-21" style="edgeStyle=orthogonalEdgeStyle;rounded=0;orthogonalLoop=1;jettySize=auto;html=1;" edge="1" parent="1" source="_T_K9SiaN2vDp4n8ltP4-14" target="_T_K9SiaN2vDp4n8ltP4-2">
          <mxGeometry relative="1" as="geometry" />
        </mxCell>
        <mxCell id="_T_K9SiaN2vDp4n8ltP4-22" style="edgeStyle=orthogonalEdgeStyle;rounded=0;orthogonalLoop=1;jettySize=auto;html=1;" edge="1" parent="1" source="_T_K9SiaN2vDp4n8ltP4-14" target="_T_K9SiaN2vDp4n8ltP4-13">
          <mxGeometry relative="1" as="geometry" />
        </mxCell>
        <mxCell id="_T_K9SiaN2vDp4n8ltP4-14" value="A variável&amp;nbsp;&lt;div&gt;sub é igual&amp;nbsp;&lt;/div&gt;&lt;div&gt;ao número?&lt;/div&gt;&lt;div&gt;(sub =num)&lt;/div&gt;" style="rhombus;whiteSpace=wrap;html=1;" vertex="1" parent="1">
          <mxGeometry x="336" y="647.5" width="128" height="120" as="geometry" />
        </mxCell>
        <mxCell id="_T_K9SiaN2vDp4n8ltP4-25" style="edgeStyle=orthogonalEdgeStyle;rounded=0;orthogonalLoop=1;jettySize=auto;html=1;" edge="1" parent="1" source="_T_K9SiaN2vDp4n8ltP4-15" target="_T_K9SiaN2vDp4n8ltP4-14">
          <mxGeometry relative="1" as="geometry" />
        </mxCell>
        <mxCell id="_T_K9SiaN2vDp4n8ltP4-15" value="Exiba o número&lt;div&gt;(num)&lt;/div&gt;" style="shape=display;whiteSpace=wrap;html=1;" vertex="1" parent="1">
          <mxGeometry x="345" y="570" width="110" height="60" as="geometry" />
        </mxCell>
        <mxCell id="_T_K9SiaN2vDp4n8ltP4-20" value="Sim" style="text;html=1;align=center;verticalAlign=middle;resizable=0;points=[];autosize=1;strokeColor=none;fillColor=none;" vertex="1" parent="1">
          <mxGeometry x="400" y="760" width="40" height="30" as="geometry" />
        </mxCell>
        <mxCell id="_T_K9SiaN2vDp4n8ltP4-26" value="Não" style="text;html=1;align=center;verticalAlign=middle;resizable=0;points=[];autosize=1;strokeColor=none;fillColor=none;" vertex="1" parent="1">
          <mxGeometry x="303" y="684" width="50" height="30" as="geometry" />
        </mxCell>
        <mxCell id="_T_K9SiaN2vDp4n8ltP4-29" style="edgeStyle=orthogonalEdgeStyle;rounded=0;orthogonalLoop=1;jettySize=auto;html=1;" edge="1" parent="1" source="_T_K9SiaN2vDp4n8ltP4-27" target="_T_K9SiaN2vDp4n8ltP4-11">
          <mxGeometry relative="1" as="geometry" />
        </mxCell>
        <mxCell id="_T_K9SiaN2vDp4n8ltP4-27" value="Defina a variável sub como 0&lt;div&gt;(sub = 0)&lt;/div&gt;" style="whiteSpace=wrap;html=1;" vertex="1" parent="1">
          <mxGeometry x="340" y="350" width="120" height="60" as="geometry" />
        </mxCell>
      </root>
    </mxGraphModel>
  </diagram>
</mxfile>
